<?xml version="1.0" encoding="utf-8"?>
<!-- Generator: Adobe Illustrator 29.5.1, SVG Export Plug-In . SVG Version: 9.03 Build 0)  -->
<svg version="1.0"
	 id="svg4768" xmlns:dc="http://purl.org/dc/elements/1.1/" xmlns:rdf="http://www.w3.org/1999/02/22-rdf-syntax-ns#" xmlns:svg="http://www.w3.org/2000/svg" xmlns:cc="http://creativecommons.org/ns#"
	 xmlns="http://www.w3.org/2000/svg" xmlns:xlink="http://www.w3.org/1999/xlink" x="0px" y="0px" viewBox="0.17 0.2 48 48"
	 style="enable-background:new 0.17 0.2 48 48;" xml:space="preserve">
<style type="text/css">
	.st0{display:none;fill:none;}
	.st1{display:none;}
	.st2{display:inline;}
	.st3{display:none;fill:#050505;}
	.st4{opacity:0.405;filter:url(#filter4350);enable-background:new    ;}
	.st5{opacity:0.9961;fill:#211F46;}
	.st6{fill:none;stroke:#0A0B1B;stroke-width:0.7895;stroke-miterlimit:10;}
	
		.st7{fill:url(#path4235_00000013913970573388131470000012192536934597607041_);stroke:url(#path4235_00000123430744941593008460000005765856956704695711_);stroke-width:1.2505;stroke-miterlimit:10;}
	.st8{fill-rule:evenodd;clip-rule:evenodd;fill:#FFFFFF;}
</style>
<filter  height="1.088351" id="filter4350" style="color-interpolation-filters:sRGB" width="1.0892536" x="-0.044626798" y="-0.044175496">
	<feGaussianBlur  id="feGaussianBlur4352" stdDeviation="8.7848425"></feGaussianBlur>
</filter>
<rect id="rect4772" y="0" class="st0" width="48" height="48"/>
<g id="g4788" class="st1">
	<g id="g4790" class="st2">
	</g>
</g>
<g id="g4806" class="st1">
	<g id="g4808" class="st2">
		<path id="path4810" class="st3" d="M32.71,24.04c-0.02-0.02,3.53,2.59,3.7,2.34c0.6-0.87,7.69-8.73,7.95-10.9
			c0.02-0.19-0.05-0.38-0.05-0.38s-0.11-0.01-0.59-0.4c-0.25-0.21-0.51-0.43-0.51-0.43c-1.51,0.09-5.43,3.9-10.41,9.71"/>
	</g>
</g>
<g id="path4233" class="st4">
	<ellipse class="st5" cx="23.9" cy="24.07" rx="21.85" ry="22.08"/>
	<ellipse class="st6" cx="23.9" cy="24.07" rx="21.85" ry="22.08"/>
</g>
<linearGradient id="path4235_00000069379149868886542750000002023828733582448257_" gradientUnits="userSpaceOnUse" x1="7250.0835" y1="-4049.916" x2="7608.8989" y2="-4512.5068" gradientTransform="matrix(0.0819 0 0 -0.0776 -580.8757 -303.5984)">
	<stop  offset="0" style="stop-color:#8381C5"/>
	<stop  offset="0.5664" style="stop-color:#7E55B3;stop-opacity:0.9961"/>
	<stop  offset="1" style="stop-color:#A52ECB;stop-opacity:0.9922"/>
</linearGradient>
<linearGradient id="path4235_00000111160731559072896550000002544792061976802191_" gradientUnits="userSpaceOnUse" x1="6854.2925" y1="-3903.7896" x2="6580.4282" y2="-3573.2014" gradientTransform="matrix(0.0925 0 0 -0.0925 -596.6843 -320.7416)">
	<stop  offset="0" style="stop-color:#411F5D"/>
	<stop  offset="1" style="stop-color:#5B2A85"/>
</linearGradient>
<path id="path4235" style="fill:url(#path4235_00000069379149868886542750000002023828733582448257_);stroke:url(#path4235_00000111160731559072896550000002544792061976802191_);stroke-width:1.2505;stroke-miterlimit:10;" d="
	M45.76,24.07c0,12.19-9.78,22.08-21.85,22.08S2.05,36.26,2.05,24.07S11.83,1.99,23.9,1.99S45.76,11.87,45.76,24.07z"/>
<path id="path4237" class="st8" d="M16.39,39.57c0,0,1.85,0.13,4.23-0.08c0.96-0.08,4.62-0.44,7.36-1.04c0,0,3.34-0.71,5.12-1.37
	c1.87-0.69,2.88-1.27,3.34-2.1c-0.02-0.17,0.14-0.77-0.72-1.13c-2.2-0.92-4.76-0.76-9.81-0.86c-5.6-0.19-7.47-1.13-8.46-1.89
	c-0.95-0.77-0.47-2.89,3.61-4.75c2.06-0.99,10.11-2.83,10.11-2.83c-2.71-1.34-7.77-3.7-8.81-4.21c-0.91-0.45-2.37-1.12-2.69-1.93
	c-0.36-0.78,0.85-1.45,1.52-1.65c2.17-0.63,5.23-1.01,8.02-1.06c1.4-0.02,1.63-0.11,1.63-0.11c1.93-0.32,3.21-1.64,2.68-3.74
	c-0.48-2.14-2.99-3.4-5.37-2.96c-2.25,0.41-7.66,1.98-7.66,1.98c6.69-0.06,7.81,0.05,8.32,0.75c0.3,0.41-0.13,0.98-1.92,1.27
	c-1.94,0.32-5.98,0.7-5.98,0.7c-3.88,0.23-6.61,0.25-7.43,1.98c-0.53,1.13,0.57,2.13,1.06,2.76c2.05,2.28,5.01,3.51,6.91,4.41
	c0.72,0.34,2.82,0.98,2.82,0.98c-6.18-0.34-10.63,1.56-13.24,3.74c-2.96,2.73-1.65,5.99,4.41,8c3.58,1.19,5.35,1.74,10.69,1.26
	c3.14-0.17,3.64-0.07,3.67,0.19c0.04,0.36-3.49,1.26-4.46,1.54C22.86,38.14,16.42,39.57,16.39,39.57z"/>
</svg>
